<?xml version="1.0" encoding="UTF-8" standalone="no"?>
<svg width="400px" height="200px" viewBox="0 0 400 200" version="1.1" xmlns="http://www.w3.org/2000/svg" xmlns:xlink="http://www.w3.org/1999/xlink">
    <!-- Generator: Sketch 3.8.3 (29802) - http://www.bohemiancoding.com/sketch -->
    <title>Logo INTEC</title>
    <desc>Created with Sketch.</desc>
    <defs></defs>
    <g id="INTEC-Collection" stroke="none" stroke-width="1" fill="none" fill-rule="evenodd">
        <g id="Logo-INTEC">
            <g id="Logo" transform="translate(10.000000, 16.000000)">
                <path d="M5.13612903,166.308698 L7.90951613,166.308698 L7.90951613,147.007025 L5.13612903,147.007025 L5.13612903,166.308698 Z M10.4929032,166.308698 L13.2662903,166.308698 L13.2662903,154.70448 L17.5658065,166.308698 L20.1767742,166.308698 L20.1767742,147.003971 L17.4033871,147.003971 L17.4033871,158.63568 L13.1590323,147.003971 L10.4929032,147.003971 L10.4929032,166.308698 Z M31.6533871,151.207025 C31.6533871,149.065789 29.8054839,146.84208 27.0290323,146.84208 C23.8480645,146.84208 22.2698387,149.200189 22.2698387,152.129498 C22.2698387,154.542589 22.895,156.112625 25.2883871,157.09008 L27.2741935,157.902589 C28.6348387,158.446298 28.88,158.77008 28.88,160.831898 C28.88,162.594371 28.7420968,163.706225 26.8666129,163.706225 C25.4508065,163.706225 24.9083871,162.728771 24.9083871,161.72688 L24.9083871,160.859389 L22.135,160.859389 L22.135,161.888771 C22.135,164.491244 24.1729032,166.470589 26.8666129,166.470589 C30.4582258,166.470589 31.6533871,164.057498 31.6533871,160.804407 C31.6533871,157.985062 31.1906452,156.439462 28.7420968,155.516989 L26.6214516,154.676989 C25.181129,154.108844 25.0432258,153.592625 25.0432258,152.102007 C25.0432258,150.828262 25.3987097,149.609498 26.9217742,149.609498 C28.3345161,149.609498 28.88,150.666371 28.88,151.940116 L28.88,152.563244 L31.6533871,152.563244 L31.6533871,151.207025 Z M35.5422581,166.308698 L38.3187097,166.308698 L38.3187097,149.609498 L41.5272581,149.609498 L41.5272581,147.003971 L32.3337097,147.003971 L32.3337097,149.609498 L35.5422581,149.609498 L35.5422581,166.308698 Z M42.8327419,166.308698 L45.606129,166.308698 L45.606129,147.007025 L42.8327419,147.007025 L42.8327419,166.308698 Z M50.1201613,166.308698 L52.8966129,166.308698 L52.8966129,149.609498 L56.1051613,149.609498 L56.1051613,147.003971 L46.9116129,147.003971 L46.9116129,149.609498 L50.1201613,149.609498 L50.1201613,166.308698 Z M66.303871,147.003971 L63.5304839,147.003971 L63.5304839,161.699389 C63.5304839,163.055607 62.795,163.706225 61.8174194,163.706225 C60.8367742,163.706225 60.1012903,163.055607 60.1012903,161.699389 L60.1012903,147.003971 L57.3279032,147.003971 L57.3279032,161.971244 C57.3279032,164.491244 59.3412903,166.470589 61.8174194,166.470589 C64.2904839,166.470589 66.303871,164.491244 66.303871,161.971244 L66.303871,147.003971 Z M70.7382258,166.308698 L73.5116129,166.308698 L73.5116129,149.609498 L76.7201613,149.609498 L76.7201613,147.003971 L67.5266129,147.003971 L67.5266129,149.609498 L70.7382258,149.609498 L70.7382258,166.308698 Z M77.4556452,161.754371 C77.4556452,164.897498 79.8490323,166.470589 82.1075806,166.470589 C84.3630645,166.470589 86.7564516,164.897498 86.7564516,161.754371 L86.7564516,151.558298 C86.7564516,148.415171 84.3630645,146.84208 82.1075806,146.84208 C79.8490323,146.84208 77.4556452,148.415171 77.4556452,151.558298 L77.4556452,161.754371 Z M80.2290323,151.558298 C80.2290323,150.232625 81.0993548,149.609498 82.1075806,149.609498 C83.1127419,149.609498 83.9830645,150.232625 83.9830645,151.558298 L83.9830645,161.754371 C83.9830645,163.083098 83.1127419,163.706225 82.1075806,163.706225 C81.0993548,163.706225 80.2290323,163.083098 80.2290323,161.754371 L80.2290323,151.558298 Z M96.0879032,166.308698 L98.8612903,166.308698 L98.8612903,149.609498 L102.069839,149.609498 L102.069839,147.003971 L92.8762903,147.003971 L92.8762903,149.609498 L96.0879032,149.609498 L96.0879032,166.308698 Z M103.292581,166.308698 L111.56371,166.308698 L111.56371,163.54128 L106.069032,163.54128 L106.069032,157.875098 L110.855806,157.875098 L110.855806,155.27568 L106.069032,155.27568 L106.069032,149.609498 L111.56371,149.609498 L111.56371,147.003971 L103.292581,147.003971 L103.292581,166.308698 Z M122.17,160.804407 L119.396613,160.804407 L119.396613,161.754371 C119.396613,163.27248 118.415968,163.706225 117.655968,163.706225 C116.402581,163.706225 115.967419,162.838735 115.967419,161.72688 L115.967419,151.857644 C115.967419,150.556407 116.295323,149.609498 117.680484,149.609498 C118.743871,149.609498 119.396613,150.528916 119.396613,151.61328 L119.396613,152.535753 L122.17,152.535753 L122.17,151.451389 C122.17,148.766444 120.266935,146.84208 117.708065,146.84208 C115.017419,146.84208 113.194032,148.766444 113.194032,151.289498 L113.194032,161.916262 C113.194032,165.441207 115.642581,166.470589 117.763226,166.470589 C120.239355,166.470589 122.17,164.384335 122.17,161.998735 L122.17,160.804407 Z M124.318226,166.308698 L127.091613,166.308698 L127.091613,154.70448 L131.391129,166.308698 L134.002097,166.308698 L134.002097,147.003971 L131.225645,147.003971 L131.225645,158.63568 L126.984355,147.003971 L124.318226,147.003971 L124.318226,166.308698 Z M136.340323,161.754371 C136.340323,164.897498 138.73371,166.470589 140.992258,166.470589 C143.247742,166.470589 145.641129,164.897498 145.641129,161.754371 L145.641129,151.558298 C145.641129,148.415171 143.247742,146.84208 140.992258,146.84208 C138.73371,146.84208 136.340323,148.415171 136.340323,151.558298 L136.340323,161.754371 Z M139.11371,151.558298 C139.11371,150.232625 139.984032,149.609498 140.992258,149.609498 C141.997419,149.609498 142.867742,150.232625 142.867742,151.558298 L142.867742,161.754371 C142.867742,163.083098 141.997419,163.706225 140.992258,163.706225 C139.984032,163.706225 139.11371,163.083098 139.11371,161.754371 L139.11371,151.558298 Z M148.089677,166.308698 L156.357742,166.308698 L156.357742,163.54128 L150.863065,163.54128 L150.863065,147.003971 L148.089677,147.003971 L148.089677,166.308698 Z M157.991129,161.754371 C157.991129,164.897498 160.384516,166.470589 162.64,166.470589 C164.898548,166.470589 167.291935,164.897498 167.291935,161.754371 L167.291935,151.558298 C167.291935,148.415171 164.898548,146.84208 162.64,146.84208 C160.384516,146.84208 157.991129,148.415171 157.991129,151.558298 L157.991129,161.754371 Z M160.764516,151.558298 C160.764516,150.232625 161.634839,149.609498 162.64,149.609498 C163.648226,149.609498 164.518548,150.232625 164.518548,151.558298 L164.518548,161.754371 C164.518548,163.083098 163.648226,163.706225 162.64,163.706225 C161.634839,163.706225 160.764516,163.083098 160.764516,161.754371 L160.764516,151.558298 Z M160.871774,146.13648 L162.667581,146.13648 L166.259194,142.315244 L163.320323,142.315244 L160.871774,146.13648 Z M169.578065,161.754371 C169.578065,164.897498 171.971452,166.470589 174.226935,166.470589 C176.485484,166.470589 178.878871,164.897498 178.878871,161.754371 L178.878871,155.681935 L173.902097,155.681935 L173.902097,158.119462 L176.105484,158.119462 L176.105484,161.754371 C176.105484,163.083098 175.235161,163.706225 174.226935,163.706225 C173.221774,163.706225 172.351452,163.083098 172.351452,161.754371 L172.351452,151.558298 C172.351452,150.232625 173.221774,149.609498 174.226935,149.609498 C175.235161,149.609498 176.105484,150.232625 176.105484,151.558298 L176.105484,152.535753 L178.878871,152.535753 L178.878871,151.558298 C178.878871,148.415171 176.485484,146.84208 174.226935,146.84208 C171.971452,146.84208 169.578065,148.415171 169.578065,151.558298 L169.578065,161.754371 Z M181.407097,166.308698 L184.180484,166.308698 L184.180484,147.007025 L181.407097,147.007025 L181.407097,166.308698 Z M195.687742,160.804407 L192.914355,160.804407 L192.914355,161.754371 C192.914355,163.27248 191.93371,163.706225 191.170645,163.706225 C189.920323,163.706225 189.485161,162.838735 189.485161,161.72688 L189.485161,151.857644 C189.485161,150.556407 189.813065,149.609498 191.198226,149.609498 C192.261613,149.609498 192.914355,150.528916 192.914355,151.61328 L192.914355,152.535753 L195.687742,152.535753 L195.687742,151.451389 C195.687742,148.766444 193.784677,146.84208 191.225806,146.84208 C188.535161,146.84208 186.711774,148.766444 186.711774,151.289498 L186.711774,161.916262 C186.711774,165.441207 189.160323,166.470589 191.280968,166.470589 C193.757097,166.470589 195.687742,164.384335 195.687742,161.998735 L195.687742,160.804407 Z M197.780806,161.754371 C197.780806,164.897498 200.174194,166.470589 202.432742,166.470589 C204.69129,166.470589 207.084677,164.897498 207.084677,161.754371 L207.084677,151.558298 C207.084677,148.415171 204.69129,146.84208 202.432742,146.84208 C200.174194,146.84208 197.780806,148.415171 197.780806,151.558298 L197.780806,161.754371 Z M200.557258,151.558298 C200.557258,150.232625 201.427581,149.609498 202.432742,149.609498 C203.437903,149.609498 204.308226,150.232625 204.308226,151.558298 L204.308226,161.754371 C204.308226,163.083098 203.437903,163.706225 202.432742,163.706225 C201.427581,163.706225 200.557258,163.083098 200.557258,161.754371 L200.557258,151.558298 Z M214.589677,166.308698 L218.454032,166.308698 C221.717742,166.308698 223.565645,164.601207 223.565645,161.02128 L223.565645,151.992044 C223.565645,148.876407 221.825,147.003971 218.696129,147.003971 L214.589677,147.003971 L214.589677,166.308698 Z M217.363065,149.609498 L218.644032,149.609498 C220.274355,149.609498 220.792258,150.476989 220.792258,151.992044 L220.792258,161.293135 C220.792258,162.945644 220.191613,163.706225 218.644032,163.706225 L217.363065,163.706225 L217.363065,149.609498 Z M226.176613,166.308698 L234.444677,166.308698 L234.444677,163.54128 L228.95,163.54128 L228.95,157.875098 L233.736774,157.875098 L233.736774,155.27568 L228.95,155.27568 L228.95,149.609498 L234.444677,149.609498 L234.444677,147.003971 L226.176613,147.003971 L226.176613,166.308698 Z M250.275968,151.207025 C250.275968,149.065789 248.425,146.84208 245.651613,146.84208 C242.467581,146.84208 240.892419,149.200189 240.892419,152.129498 C240.892419,154.542589 241.517581,156.112625 243.910968,157.09008 L245.896774,157.902589 C247.254355,158.446298 247.499516,158.77008 247.499516,160.831898 C247.499516,162.594371 247.364677,163.706225 245.486129,163.706225 C244.073387,163.706225 243.530968,162.728771 243.530968,161.72688 L243.530968,160.859389 L240.754516,160.859389 L240.754516,161.888771 C240.754516,164.491244 242.795484,166.470589 245.486129,166.470589 C249.077742,166.470589 250.275968,164.057498 250.275968,160.804407 C250.275968,157.985062 249.813226,156.439462 247.364677,155.516989 L245.244032,154.676989 C243.800645,154.108844 243.665806,153.592625 243.665806,152.102007 C243.665806,150.828262 244.018226,149.609498 245.54129,149.609498 C246.957097,149.609498 247.499516,150.666371 247.499516,151.940116 L247.499516,152.563244 L250.275968,152.563244 L250.275968,151.207025 Z M257.943387,159.558153 L255.17,159.558153 L256.530645,152.563244 L257.943387,159.558153 Z M251.091129,166.308698 L253.864516,166.308698 L254.679677,162.160625 L258.46129,162.160625 L259.276452,166.308698 L262.052903,166.308698 L257.725806,147.003971 L255.415161,147.003971 L251.091129,166.308698 Z M263.303226,166.308698 L266.076613,166.308698 L266.076613,154.70448 L270.373065,166.308698 L272.984032,166.308698 L272.984032,147.003971 L270.210645,147.003971 L270.210645,158.63568 L265.969355,147.003971 L263.303226,147.003971 L263.303226,166.308698 Z M277.311129,166.308698 L280.084516,166.308698 L280.084516,149.609498 L283.293065,149.609498 L283.293065,147.003971 L274.099516,147.003971 L274.099516,149.609498 L277.311129,149.609498 L277.311129,166.308698 Z M284.028548,161.754371 C284.028548,164.897498 286.421935,166.470589 288.677419,166.470589 C290.935968,166.470589 293.329355,164.897498 293.329355,161.754371 L293.329355,151.558298 C293.329355,148.415171 290.935968,146.84208 288.677419,146.84208 C286.421935,146.84208 284.028548,148.415171 284.028548,151.558298 L284.028548,161.754371 Z M286.801935,151.558298 C286.801935,150.232625 287.672258,149.609498 288.677419,149.609498 C289.685645,149.609498 290.555968,150.232625 290.555968,151.558298 L290.555968,161.754371 C290.555968,163.083098 289.685645,163.706225 288.677419,163.706225 C287.672258,163.706225 286.801935,163.083098 286.801935,161.754371 L286.801935,151.558298 Z M300.837419,166.308698 L304.69871,166.308698 C307.962419,166.308698 309.813387,164.601207 309.813387,161.02128 L309.813387,151.992044 C309.813387,148.876407 308.069677,147.003971 304.943871,147.003971 L300.837419,147.003971 L300.837419,166.308698 Z M303.610806,149.609498 L304.88871,149.609498 C306.522097,149.609498 307.036935,150.476989 307.036935,151.992044 L307.036935,161.293135 C307.036935,162.945644 306.439355,163.706225 304.88871,163.706225 L303.610806,163.706225 L303.610806,149.609498 Z M312.258871,161.754371 C312.258871,164.897498 314.652258,166.470589 316.910806,166.470589 C319.169355,166.470589 321.562742,164.897498 321.562742,161.754371 L321.562742,151.558298 C321.562742,148.415171 319.169355,146.84208 316.910806,146.84208 C314.652258,146.84208 312.258871,148.415171 312.258871,151.558298 L312.258871,161.754371 Z M315.035323,151.558298 C315.035323,150.232625 315.905645,149.609498 316.910806,149.609498 C317.915968,149.609498 318.78629,150.232625 318.78629,151.558298 L318.78629,161.754371 C318.78629,163.083098 317.915968,163.706225 316.910806,163.706225 C315.905645,163.706225 315.035323,163.083098 315.035323,161.754371 L315.035323,151.558298 Z M324.008226,166.308698 L326.784677,166.308698 L326.784677,154.57008 L329.558065,162.866225 L330.94629,162.866225 L333.692097,154.57008 L333.747258,166.308698 L336.520645,166.308698 L336.520645,147.003971 L333.826935,147.003971 L330.293548,157.22448 L326.674355,147.003971 L324.008226,147.003971 L324.008226,166.308698 Z M339.214355,166.308698 L341.987742,166.308698 L341.987742,147.007025 L339.214355,147.007025 L339.214355,166.308698 Z M344.571129,166.308698 L347.344516,166.308698 L347.344516,154.70448 L351.644032,166.308698 L354.255,166.308698 L354.255,147.003971 L351.481613,147.003971 L351.481613,158.63568 L347.237258,147.003971 L344.571129,147.003971 L344.571129,166.308698 Z M356.593226,161.754371 C356.593226,164.897498 358.986613,166.470589 361.245161,166.470589 C363.500645,166.470589 365.897097,164.897498 365.897097,161.754371 L365.897097,155.681935 L360.917258,155.681935 L360.917258,158.119462 L363.120645,158.119462 L363.120645,161.754371 C363.120645,163.083098 362.250323,163.706225 361.245161,163.706225 C360.236935,163.706225 359.366613,163.083098 359.366613,161.754371 L359.366613,151.558298 C359.366613,150.232625 360.236935,149.609498 361.245161,149.609498 C362.250323,149.609498 363.120645,150.232625 363.120645,151.558298 L363.120645,152.535753 L365.897097,152.535753 L365.897097,151.558298 C365.897097,148.415171 363.500645,146.84208 361.245161,146.84208 C358.986613,146.84208 356.593226,148.415171 356.593226,151.558298 L356.593226,161.754371 Z M368.180161,161.754371 C368.180161,164.897498 370.573548,166.470589 372.832097,166.470589 C375.087581,166.470589 377.480968,164.897498 377.480968,161.754371 L377.480968,151.558298 C377.480968,148.415171 375.087581,146.84208 372.832097,146.84208 C370.573548,146.84208 368.180161,148.415171 368.180161,151.558298 L368.180161,161.754371 Z M370.953548,151.558298 C370.953548,150.232625 371.823871,149.609498 372.832097,149.609498 C373.837258,149.609498 374.707581,150.232625 374.707581,151.558298 L374.707581,161.754371 C374.707581,163.083098 373.837258,163.706225 372.832097,163.706225 C371.823871,163.706225 370.953548,163.083098 370.953548,161.754371 L370.953548,151.558298 Z" id="Fill-1" fill="#727272"></path>
                <path d="M43.5339032,137.724262 L43.5339032,37.8894982 L68.6292258,37.8894982 L68.6292258,48.8736436 L69.0245484,48.8736436 C77.5316452,37.4343709 85.8456774,34.2759709 99.8964839,34.2759709 C120.673903,34.2759709 134.528581,47.4929891 134.528581,68.7984436 L134.761484,114.949571 C135.500032,125.105935 139.680032,132.690371 146.228903,137.724262 L133.171,137.724262 L124.063258,137.724262 L123.275677,137.724262 L109.396484,137.724262 L109.396484,75.5031709 C109.396484,64.8519709 104.44729,55.9754618 93.169871,55.9754618 C77.3355161,55.9754618 70.0143871,68.0073164 70.0143871,80.6317527 L70.0143871,137.638735 L68.6537419,137.724262 L43.5339032,137.724262 Z M4.34180645,137.724262 L4.34180645,38.6134255 C8.5493871,41.8237527 13.8418065,43.7389527 19.5939032,43.7389527 C25.1284194,43.7389527 30.2369677,41.9673164 34.3618065,38.9708073 L34.3618065,137.638735 L4.34180645,137.724262 Z M-0.000612903226,19.0979345 C-0.000612903226,8.55058909 8.74245161,0.000916363636 19.5295484,0.000916363636 C30.3135806,0.000916363636 39.0566452,8.55058909 39.0566452,19.0979345 C39.0566452,29.64528 30.3135806,38.1949527 19.5295484,38.1949527 C8.74245161,38.1949527 -0.000612903226,29.64528 -0.000612903226,19.0979345 L-0.000612903226,19.0979345 Z M378.641806,45.9168436 L365.381645,64.65648 C358.851161,60.7100073 351.726161,57.1575709 344.006645,57.1575709 C325.405032,57.1575709 311.553419,69.3910255 311.553419,87.53808 C311.553419,104.894007 327.38471,117.91248 340.445677,117.91248 C350.736323,117.91248 356.476161,115.545207 364.591,110.21808 L378.442613,128.169644 C368.746484,137.83728 353.705839,140.797135 340.841,140.797135 C314.915194,140.797135 286.421323,120.478298 286.421323,86.7469527 C286.421323,56.3694982 312.344065,34.2759709 341.631645,34.2759709 C356.276968,34.2759709 367.557452,38.8119709 378.641806,45.9168436 L378.641806,45.9168436 Z M212.256968,91.4601164 L257.795677,63.9966982 C253.201968,59.4209891 247.272129,57.7043345 240.769226,57.7043345 C225.458903,57.7043345 213.213097,70.09968 211.876968,84.9753164 C211.876968,87.0707345 211.876968,89.1692073 212.256968,91.4601164 L212.256968,91.4601164 Z M272.529871,106.906953 L282.863419,127.696189 C270.997613,135.897644 256.456484,140.476407 242.105355,140.476407 C213.406161,140.476407 188.148419,118.159898 188.148419,88.9798255 C188.148419,77.7116073 191.91471,67.4636073 198.193903,59.1338618 L166.807129,59.1338618 L166.807129,101.937207 C166.807129,111.601789 170.962613,117.91248 185.607935,117.91248 L186.934871,117.884989 C191.773742,125.814589 198.751645,132.345207 206.992129,136.850662 C194.084387,140.287025 188.341484,140.852116 178.283742,140.797135 C157.111,140.674953 141.675032,129.550298 141.675032,107.26128 L141.675032,59.1338618 L141.675032,37.4343709 L141.675032,17.3904436 L166.807129,6.14666182 L166.807129,37.4343709 L242.470032,37.4343709 C262.361806,37.5993164 279.838742,49.5853527 288.410194,67.4300073 L221.824387,108.623607 C223.736645,112.628116 229.096484,118.34928 240.769226,118.34928 C253.201968,118.34928 262.386323,113.584189 272.529871,106.906953 L272.529871,106.906953 Z" id="Fill-3" fill="#DF1A21"></path>
            </g>
        </g>
    </g>
</svg>